<svg width="62" height="62" viewBox="0 0 62 62" fill="none" xmlns="http://www.w3.org/2000/svg">
<path d="M23.2487 25.8333C26.1022 25.8333 28.4154 23.5201 28.4154 20.6667C28.4154 17.8132 26.1022 15.5 23.2487 15.5C20.3952 15.5 18.082 17.8132 18.082 20.6667C18.082 23.5201 20.3952 25.8333 23.2487 25.8333Z" stroke="#06456B" stroke-width="3.5" stroke-linecap="round" stroke-linejoin="round"/>
<path d="M33.5846 5.16602H23.2513C10.3346 5.16602 5.16797 10.3327 5.16797 23.2494V38.7494C5.16797 51.666 10.3346 56.8327 23.2513 56.8327H38.7513C51.668 56.8327 56.8346 51.666 56.8346 38.7494V25.8327" stroke="#06456B" stroke-width="3.5" stroke-linecap="round" stroke-linejoin="round"/>
<path d="M40.6875 12.916H54.8958" stroke="#06456B" stroke-width="3.5" stroke-linecap="round"/>
<path d="M47.793 20.0208V5.8125" stroke="#06456B" stroke-width="3.5" stroke-linecap="round"/>
<path d="M6.89844 48.9548L19.6343 40.4039C21.6751 39.0348 24.6201 39.1898 26.4543 40.7656L27.3068 41.5148C29.3218 43.2456 32.5768 43.2456 34.5918 41.5148L45.3384 32.2923C47.3534 30.5614 50.6084 30.5614 52.6234 32.2923L56.8343 35.9089" stroke="#06456B" stroke-width="3.5" stroke-linecap="round" stroke-linejoin="round"/>
</svg>
