<svg width="20" height="20" viewBox="0 0 20 20" fill="none" xmlns="http://www.w3.org/2000/svg">
<path d="M0.398438 1.60039C0.398438 0.937649 0.935696 0.400391 1.59844 0.400391H4.18189C4.76849 0.400391 5.26912 0.824486 5.36556 1.40311L6.25273 6.72616C6.33934 7.2458 6.07691 7.76116 5.60572 7.99675L3.74795 8.92564C5.08751 12.2544 7.74445 14.9113 11.0732 16.2509L12.0021 14.3931C12.2377 13.9219 12.753 13.6595 13.2727 13.7461L18.5957 14.6333C19.1743 14.7297 19.5984 15.2303 19.5984 15.8169V18.4004C19.5984 19.0631 19.0612 19.6004 18.3984 19.6004H15.9984C7.3828 19.6004 0.398438 12.616 0.398438 4.00039V1.60039Z" fill="#99A6AE"/>
</svg>
